#!OML:ASF E:\Steps\Project 1\Capture day 1\Session 2\Subject.ASF
:FULLY-SPECIFIED
:DEGREES
558
root 3.68002 18.0471 8.08003 -154.159 -2.49352 176.378
lowerback -27.3404 -3.34849 -6.64568
upperback 0.2785 -2.70654 0.452648
thorax 15.2335 -1.86197 3.05153
lowerneck -0.00884159 -3.30652 -5.93847
upperneck 30.3355 -2.18244 7.3758
head 9.73058 0.408099 3.70699
rclavicle 2.95071e-015 -2.2736e-014
rhumerus -34.6316 -16.0851 -78.4224
rradius 35.2459
rwrist -0.234908
rhand -12.0088 -55.4094
rfingers 7.12502
rthumb 14.0486 -84.9146
lclavicle 2.95071e-015 -2.2736e-014
lhumerus -28.6999 -3.16229 83.8465
lradius 29.4724
lwrist -1.44648
lhand -24.0469 -12.5353
lfingers 7.12502
lthumb 2.43204 17.4306
rfemur -23.7621 7.0115 16.8486
rtibia 5.66714
rfoot -16.4571 -0.859934
rtoes -7.44031
lfemur -25.0308 -8.67025 -22.7665
ltibia 6.6953
lfoot -3.78744 -5.95667
ltoes -19.9832
559
root 3.67437 18.0452 8.06704 -154.171 -2.6511 176.407
lowerback -27.4583 -3.33943 -6.56991
upperback 0.334998 -2.705 0.46365
thorax 15.3551 -1.85753 3.01816
lowerneck -0.196774 -3.27359 -6.0112
upperneck 30.2548 -2.18804 7.49744
head 9.7374 0.400147 3.75913
rclavicle 1.69278e-014 3.65267e-015
rhumerus -34.4863 -16.0627 -78.4643
rradius 35.1328
rwrist -0.300016
rhand -12.1755 -56.1349
rfingers 7.12502
rthumb 13.8879 -85.6512
lclavicle 1.69278e-014 3.65267e-015
lhumerus -28.5792 -2.88526 83.7617
lradius 29.1042
lwrist -1.52584
lhand -23.964 -12.9787
lfingers 7.12502
lthumb 2.5121 16.9862
rfemur -23.5866 6.85305 16.9377
rtibia 5.53169
rfoot -16.491 -0.847217
rtoes -7.92864
lfemur -24.9638 -8.63939 -22.7771
ltibia 6.66519
lfoot -3.72464 -6.12828
ltoes -19.7699
560
root 3.66925 18.0446 8.05318 -154.218 -2.71957 176.571
lowerback -27.5998 -3.24406 -6.37529
upperback 0.383917 -2.62998 0.489883
thorax 15.4683 -1.81205 2.96553
lowerneck -0.300263 -3.30231 -6.0325
upperneck 30.1754 -2.25825 7.53359
head 9.73321 0.361607 3.76638
rclavicle 8.66577e-016 1.06847e-015
rhumerus -34.4356 -16.0952 -78.4419
rradius 35.0438
rwrist -0.33009
rhand -12.1001 -55.4244
rfingers 7.12502
rthumb 13.9605 -84.9357
lclavicle 8.66577e-016 1.06847e-015
lhumerus -28.501 -2.62254 83.6921
lradius 28.6667
lwrist -1.76379
lhand -24.1116 -13.0067
lfingers 7.12502
lthumb 2.36959 16.9599
rfemur -23.464 6.80545 17.1626
rtibia 5.51928
rfoot -16.5515 -0.742143
rtoes -7.89414
lfemur -24.8254 -8.47672 -22.6561
ltibia 6.55603
lfoot -3.74365 -6.22814
ltoes -21.1641
561
root 3.66128 18.0464 8.03621 -154.408 -2.67109 176.757
lowerback -27.675 -3.04996 -6.11425
upperback 0.425215 -2.44024 0.431756
thorax 15.5218 -1.70646 2.83259
lowerneck -0.243447 -3.38085 -5.92103
upperneck 30.127 -2.38826 7.5816
head 9.7132 0.321198 3.75208
rclavicle -7.19973e-015 -4.64659e-015
rhumerus -34.5882 -16.2277 -78.4147
rradius 34.9671
rwrist -0.210181
rhand -11.9844 -54.7704
rfingers 7.12502
rthumb 14.072 -84.274
lclavicle -7.19973e-015 -4.64659e-015
lhumerus -28.579 -2.54256 83.5717
lradius 28.3068
lwrist -1.98939
lhand -24.2359 -13.1342
lfingers 7.12502
lthumb 2.24953 16.8336
rfemur -23.2258 6.76061 17.4074
rtibia 5.54939
rfoot -16.6506 -0.485106
rtoes -7.50558
lfemur -24.4642 -8.41957 -22.5132
ltibia 6.38118
lfoot -3.79343 -6.1603
ltoes -21.3631
562
root 3.66668 18.0438 8.05859 -153.861 -3.10292 176.546
lowerback -27.8664 -3.20992 -6.37813
upperback 0.14835 -2.59674 0.42368
thorax 15.3089 -1.80005 2.898
lowerneck -0.0925906 -3.43862 -5.93248
upperneck 30.1216 -2.48294 7.72239
head 9.69165 0.298812 3.79848
rclavicle -8.51047e-016 -1.76421e-015
rhumerus -34.8065 -16.4457 -78.3281
rradius 34.8126
rwrist 0.063782
rhand -12.0276 -54.0629
rfingers 7.12502
rthumb 14.0304 -83.5694
lclavicle -8.51047e-016 -1.76421e-015
lhumerus -28.7269 -2.37614 83.4526
lradius 27.9389
lwrist -2.22409
lhand -24.1775 -13.5564
lfingers 7.12502
lthumb 2.30597 16.4109
rfemur -23.9135 6.84064 17.0884
rtibia 5.6781
rfoot -16.7166 -1.15484
rtoes -7.50013
lfemur -25.4707 -8.33304 -22.6355
ltibia 6.96397
lfoot -3.73541 -6.84241
ltoes -20.4973
563
root 3.65883 18.0439 8.0414 -154.155 -2.95229 176.565
lowerback -27.8392 -3.10366 -6.37778
upperback 0.192887 -2.44698 0.390227
thorax 15.3311 -1.73184 2.92173
lowerneck 0.0407879 -3.45161 -6.00459
upperneck 30.1075 -2.49682 7.79484
head 9.66452 0.29749 3.83657
rclavicle 9.93923e-016 5.49143e-015
rhumerus -34.9378 -16.6203 -78.2221
rradius 34.6647
rwrist 0.17821
rhand -12.1297 -53.7159
rfingers 7.12502
rthumb 13.932 -83.2291
lclavicle 9.93923e-016 5.49143e-015
lhumerus -28.6524 -2.05207 83.3709
lradius 27.3606
lwrist -2.46057
lhand -24.0299 -13.4531
lfingers 7.12502
lthumb 2.44852 16.5126
rfemur -23.5005 6.92035 17.0765
rtibia 5.58144
rfoot -16.7001 -1.10581
rtoes -7.31378
lfemur -24.9555 -8.50746 -22.6647
ltibia 6.78237
lfoot -3.88392 -6.54687
ltoes -21.2602
564
root 3.66657 18.0361 8.06953 -153.425 -3.46445 176.349
lowerback -28.0879 -3.325 -6.67876
upperback -0.0760734 -2.67594 0.432548
thorax 15.1671 -1.86292 3.03084
lowerneck 0.0173844 -3.44158 -5.96857
upperneck 29.988 -2.5137 7.82651
head 9.62512 0.289347 3.83435
rclavicle -6.1499e-015 -4.39811e-015
rhumerus -34.9027 -16.6485 -78.2739
rradius 34.5808
rwrist 0.00472788
rhand -12.2868 -54.1357
rfingers 7.12502
rthumb 13.7806 -83.6592
lclavicle -6.1499e-015 -4.39811e-015
lhumerus -28.2679 -1.91001 83.2673
lradius 26.6828
lwrist -2.51865
lhand -23.8876 -12.9664
lfingers 7.12502
lthumb 2.58593 16.9977
rfemur -24.4134 6.98246 16.7259
rtibia 5.7501
rfoot -16.6794 -1.83163
rtoes -7.38758
lfemur -26.2422 -8.57589 -22.6878
ltibia 7.47517
lfoot -3.82656 -7.10671
ltoes -20.3051
565
root 3.65453 18.0446 8.0369 -154.254 -3.11768 176.51
lowerback -27.8107 -3.11463 -6.493
upperback 0.254587 -2.41418 0.37929
thorax 15.39 -1.7249 2.98628
lowerneck -0.0397184 -3.42626 -5.96042
upperneck 29.7989 -2.54428 7.86185
head 9.56785 0.262781 3.83314
rclavicle 1.96051e-014 -6.4605e-016
rhumerus -34.7438 -16.5382 -78.3579
rradius 34.5035
rwrist -0.0702982
rhand -12.3007 -54.3117
rfingers 7.12502
rthumb 13.7672 -83.8362
lclavicle 1.96051e-014 -6.4605e-016
lhumerus -27.9823 -1.82891 83.2213
lradius 26.1909
lwrist -2.48418
lhand -23.694 -12.647
lfingers 7.12502
lthumb 2.77293 17.3147
rfemur -23.298 6.86901 17.0489
rtibia 5.52966
rfoot -16.7741 -1.18648
rtoes -7.75488
lfemur -24.8724 -8.56536 -22.7301
ltibia 6.91249
lfoot -3.90158 -6.67179
ltoes -20.5454
566
root 3.66122 18.0406 8.05967 -153.721 -3.52622 176.302
lowerback -28.0543 -3.37377 -6.83367
upperback 0.110174 -2.66843 0.483811
thorax 15.3796 -1.87175 3.17474
lowerneck -0.126356 -3.40276 -5.89513
upperneck 29.756 -2.49537 7.70161
head 9.56205 0.269706 3.76501
rclavicle 4.19622e-015 -2.52208e-015
rhumerus -34.5548 -16.3359 -78.3809
rradius 34.3809
rwrist -0.111383
rhand -12.3716 -54.6268
rfingers 7.12502
rthumb 13.6989 -84.1559
lclavicle 4.19622e-015 -2.52208e-015
lhumerus -27.9498 -1.61054 83.2419
lradius 25.8741
lwrist -2.53479
lhand -23.5768 -12.0814
lfingers 7.12502
lthumb 2.88607 17.8789
rfemur -23.9655 6.84223 16.7658
rtibia 5.65751
rfoot -16.8651 -1.68082
rtoes -7.97518
lfemur -25.8028 -8.41983 -22.8651
ltibia 7.3469
lfoot -3.74109 -7.27629
ltoes -19.8481
567
root 3.65057 18.0411 8.03567 -154.08 -3.33266 176.467
lowerback -28.0495 -3.24175 -6.64648
upperback 0.239566 -2.53727 0.497078
thorax 15.5115 -1.79947 3.14072
lowerneck -0.168446 -3.30796 -5.89932
upperneck 29.7101 -2.35922 7.66831
head 9.54172 0.326192 3.76212
rclavicle -1.36043e-014 -1.97542e-015
rhumerus -34.5322 -16.2327 -78.3709
rradius 34.3053
rwrist -0.124954
rhand -12.462 -55.1874
rfingers 7.12502
rthumb 13.6118 -84.7223
lclavicle -1.36043e-014 -1.97542e-015
lhumerus -28.0743 -1.33281 83.1931
lradius 25.6202
lwrist -2.60826
lhand -23.6878 -11.4678
lfingers 7.12502
lthumb 2.77885 18.4938
rfemur -23.4726 6.79888 16.9922
rtibia 5.58243
rfoot -16.8656 -1.30266
rtoes -7.54203
lfemur -25.1048 -8.37929 -22.8048
ltibia 6.94033
lfoot -3.75146 -7.0518
ltoes -19.8424
568
root 3.64256 18.0396 8.01972 -154.134 -3.30128 176.6
lowerback -28.2086 -3.16365 -6.43859
upperback 0.258746 -2.49022 0.488036
thorax 15.5979 -1.76489 3.03097
lowerneck -0.162191 -3.26082 -5.99888
upperneck 29.6399 -2.32903 7.81597
head 9.51439 0.340601 3.83181
rclavicle 2.02916e-014 1.61513e-015
rhumerus -34.547 -16.3073 -78.3343
rradius 34.1081
rwrist 0.0819845
rhand -12.1798 -55.1016
rfingers 7.12502
rthumb 13.8838 -84.6182
lclavicle 2.02916e-014 1.61513e-015
lhumerus -28.2356 -1.24217 83.0928
lradius 25.3872
lwrist -2.49341
lhand -23.8037 -11.5204
lfingers 7.12502
lthumb 2.66693 18.4427
rfemur -23.3628 6.73844 17.1581
rtibia 5.58979
rfoot -16.8939 -1.13223
rtoes -7.63498
lfemur -24.9198 -8.37742 -22.7009
ltibia 6.81923
lfoot -3.75708 -6.95467
ltoes -19.1328
569
root 3.62984 18.0419 7.98853 -154.593 -2.9704 176.773
lowerback -28.4016 -2.9137 -6.1352
upperback 0.571248 -2.18832 0.361788
thorax 16.0157 -1.60597 2.84248
lowerneck -0.378536 -3.34947 -5.90651
upperneck 29.6147 -2.49219 7.82594
head 9.55695 0.267969 3.80449
rclavicle -7.0817e-015 -1.22501e-014
rhumerus -34.2568 -16.742 -78.3342
rradius 33.7283
rwrist 0.464376
rhand -11.692 -54.5817
rfingers 7.12502
rthumb 14.3538 -84.0654
lclavicle -7.0817e-015 -1.22501e-014
lhumerus -28.1001 -1.39628 82.9818
lradius 25.0892
lwrist -2.44082
lhand -23.8486 -12.0413
lfingers 7.12502
lthumb 2.62354 17.9223
rfemur -22.7233 6.46929 17.4439
rtibia 5.46745
rfoot -16.9197 -0.480892
rtoes -8.13423
lfemur -24.0134 -8.28962 -22.7041
ltibia 6.32735
lfoot -3.74387 -6.5947
ltoes -19.1071
570
root 3.62326 18.0409 7.97592 -154.669 -2.92587 176.852
lowerback -28.6789 -2.80318 -5.99195
upperback 0.759292 -2.04173 0.300949
thorax 16.3526 -1.53197 2.74839
lowerneck -0.602548 -3.36694 -5.82811
upperneck 29.4772 -2.57576 7.85425
head 9.55323 0.22444 3.78655
rclavicle 6.90156e-015 1.04113e-014
rhumerus -33.9934 -17.2272 -78.3463
rradius 33.5633
rwrist 0.724922
rhand -11.5775 -54.7856
rfingers 7.12502
rthumb 14.4641 -84.2615
lclavicle 6.90156e-015 1.04113e-014
lhumerus -27.9424 -1.41796 82.9127
lradius 24.8308
lwrist -2.604
lhand -23.9703 -12.2891
lfingers 7.12502
lthumb 2.50607 17.676
rfemur -22.6005 6.24724 17.5828
rtibia 5.48169
rfoot -16.9433 -0.21968
rtoes -8.12245
lfemur -23.801 -8.24173 -22.6862
ltibia 6.1967
lfoot -3.76174 -6.59512
ltoes -19.7562
571
root 3.62075 18.0407 7.97126 -154.646 -3.04001 176.863
lowerback -28.4328 -2.85361 -6.07766
upperback 0.501604 -2.13981 0.386033
thorax 15.9422 -1.58136 2.85672
lowerneck -0.290487 -3.27059 -5.86418
upperneck 29.3519 -2.40712 7.7778
head 9.43566 0.292694 3.77372
rclavicle -5.24295e-015 4.12478e-015
rhumerus -34.4193 -16.9668 -78.2522
rradius 33.6249
rwrist 0.405917
rhand -11.976 -55.553
rfingers 7.12502
rthumb 14.0802 -85.056
lclavicle -5.24295e-015 4.12478e-015
lhumerus -28.4768 -1.0565 82.9067
lradius 24.6359
lwrist -2.8592
lhand -24.0937 -11.9793
lfingers 7.12502
lthumb 2.38685 17.9871
rfemur -22.6435 6.25464 17.6081
rtibia 5.61073
rfoot -16.9991 -0.299828
rtoes -7.73771
lfemur -23.8238 -8.24518 -22.6692
ltibia 6.23277
lfoot -3.84197 -6.72993
ltoes -20.2629
572
root 3.61834 18.042 7.9695 -154.714 -3.08298 176.815
lowerback -28.7341 -2.77588 -6.05016
upperback 0.802847 -1.9717 0.26606
thorax 16.4243 -1.50558 2.76865
lowerneck -0.656291 -3.24196 -5.7692
upperneck 29.1577 -2.47048 7.92012
head 9.43599 0.264924 3.7924
rclavicle 1.16724e-014 2.48481e-016
rhumerus -33.9935 -17.2562 -78.4346
rradius 33.4868
rwrist 0.141076
rhand -12.123 -55.6542
rfingers 7.12502
rthumb 13.9385 -85.167
lclavicle 1.16724e-014 2.48481e-016
lhumerus -27.8022 -0.899693 82.7468
lradius 24.0509
lwrist -3.20915
lhand -24.0749 -11.8926
lfingers 7.12502
lthumb 2.40504 18.0736
rfemur -22.6579 6.5007 17.5017
rtibia 5.82855
rfoot -17.0999 -0.567151
rtoes -7.58521
lfemur -23.7439 -8.16126 -22.7474
ltibia 6.22522
lfoot -3.87518 -6.85489
ltoes -20.3749
